<svg xmlns="http://www.w3.org/2000/svg" width="38" height="60.03" viewBox="0 0 38 60.03">
  <defs>
    <style>
      .cls-1 {
        fill: #6f6f6f;
        fill-rule: evenodd;
      }
      .cls-2 {
        fill: #e8be7b;
        fill-rule: evenodd;
      }
    </style>
  </defs>
  <path id="black" class="cls-1" d="M700,5095.19h30a4,4,0,0,1,4,4v52.02a4,4,0,0,1-4,4H700a4,4,0,0,1-4-4v-52.02A4,4,0,0,1,700,5095.19Zm0,2h30a2,2,0,0,1,2,2v52.02a2,2,0,0,1-2,2H700a2,2,0,0,1-2-2v-52.02A2,2,0,0,1,700,5097.19Zm-3,46.02h30a1,1,0,0,1,0,2H697A1,1,0,0,1,697,5143.21Zm6-38.02h30a1,1,0,0,1,0,2H703A1,1,0,0,1,703,5105.19Z" transform="translate(-696 -5095.19)"/>
  <path id="blue" class="cls-2" d="M715,5147.21a2,2,0,1,1-2,2A2,2,0,0,1,715,5147.21Zm-3-47.02h6a1,1,0,0,1,0,2h-6A1,1,0,0,1,712,5100.19Zm-9.715,15.36,4.073-4.07a0.95,0.95,0,0,1,1.357,0,0.963,0.963,0,0,1,0,1.36l-4.073,4.07a0.95,0.95,0,0,1-1.357,0A0.963,0.963,0,0,1,702.285,5115.55Zm0,6.01,10.073-10.08a0.95,0.95,0,0,1,1.357,0,0.963,0.963,0,0,1,0,1.36l-10.073,10.07A0.957,0.957,0,1,1,702.285,5121.56Z" transform="translate(-696 -5095.19)"/>
</svg>
