<svg xmlns="http://www.w3.org/2000/svg" width="60" height="60.03" viewBox="0 0 60 60.03">
  <defs>
    <style>
      .cls-1 {
        fill: #6f6f6f;
        fill-rule: evenodd;
      }
      .cls-2 {
        fill: #e8be7b;
        fill-rule: evenodd;
      }
    </style>
  </defs>
  <path id="black" class="cls-1" d="M314,5133.2a22,22,0,1,1-32.526-19.33l0.921,1.78a20,20,0,1,0,19.21,0l0.921-1.78A22.013,22.013,0,0,1,314,5133.2Zm-13.362-22.98L292,5127.2l-8.638-16.98A10,10,0,1,1,300.638,5110.22Zm-1.528-1.37h0.015L292,5123.2l-7.125-14.35h0.015A8,8,0,1,1,299.11,5108.85Zm-36.381,30.4,58.024-15.02a1,1,0,1,1,.518,1.93l-58.024,15.02a1.007,1.007,0,0,1-1.225-.71A1,1,0,0,1,262.729,5139.25Z" transform="translate(-262 -5095.19)"/>
  <path id="blue" class="cls-2" d="M292,5101.19a4,4,0,1,1-4,4A4,4,0,0,1,292,5101.19Zm0,2a2,2,0,1,1-2,2A2,2,0,0,1,292,5103.19Zm3.5,34.14a0.948,0.948,0,0,1,.366,1.32l-6,10.08a1.011,1.011,0,0,1-1.366.36,0.959,0.959,0,0,1-.366-1.33l6-10.08A1.017,1.017,0,0,1,295.5,5137.33Zm-0.5-.13h11a1.005,1.005,0,0,1,0,2.01H295A1.005,1.005,0,0,1,295,5137.2Z" transform="translate(-262 -5095.19)"/>
</svg>
