<svg xmlns="http://www.w3.org/2000/svg" viewBox="0 0 305.84 110.12" fill="#3a3a3a"><title>Asset 1</title><g id="Layer_2" data-name="Layer 2"><g id="Layer_3" data-name="Layer 3"><polygon points="305.84 1.16 305.84 0.12 296.17 0.12 279.5 0.12 269.84 0.12 269.84 1.16 279.5 1.16 279.5 54.62 246.17 54.62 246.17 1.16 255.84 1.16 255.84 0.12 246.17 0.12 229.5 0.12 219.84 0.12 219.84 1.16 229.5 1.16 229.5 109.15 219.84 109.15 219.84 110.11 229.5 110.11 246.17 110.11 255.84 110.11 255.84 109.15 246.17 109.15 246.17 55.62 279.5 55.62 279.5 109.15 269.84 109.15 269.84 109.63 269.84 110.11 279.5 110.11 296.17 110.11 305.84 110.11 305.84 109.63 305.84 109.15 296.17 109.15 296.17 1.16 305.84 1.16"/><path d="M110.71.12c-21.18,0-38.34,24.62-38.34,55s17.17,55,38.34,55S149,85.49,149,55.12,131.88.12,110.71.12Zm0,109c-17.3,0-21.67-24.16-21.67-54s4.37-54,21.67-54,21.67,24.16,21.67,54S128,109.07,110.71,109.07Z"/><path d="M204.35,5.36c1.87,1,3.63,1.83,4.62,1.83,2.37,0,4.08-1,4.77-7h1l0,34.39h-1.08c0-20-12.66-33.31-30.95-33.31C173.31,1.28,161,2.45,161,19.37c0,12.16,16.65,19,30.49,28,15.32,9.88,28.33,17.54,28.33,34.15,0,18.58-16.21,28.36-34.59,28.36a42,42,0,0,1-16-2.87,86.89,86.89,0,0,1-8.95-5,5.48,5.48,0,0,0-3.54-1.21c-1.78,0-4.06,2.53-4.28,7.56h-1.05V72h1.05c0,24.74,11.14,36.62,31.4,36.62,11.5,0,23.45-5.25,23.45-22,0-11.76-14.51-18.6-27.75-26.9C164.83,50.38,151,42.89,151,26.09,151,8.1,165,0,181,0A55.71,55.71,0,0,1,204.35,5.36Z"/><path d="M41.37.12H0v1H10.66v108H.1v1H36v-1H27.27v-49h14.1a30,30,0,1,0,0-60ZM27.32,59V1.23C42.69,1.88,54.7,8,54.7,30.12S42.69,58.35,27.32,59Z"/></g></g></svg>