<svg xmlns="http://www.w3.org/2000/svg" width="34" height="40" viewBox="0 0 34 40">
  <defs>
    <style>
      .cls-1 {
        fill: #6f6f6f;
        fill-rule: evenodd;
      }
    </style>
  </defs>
  <path id="wedding_cake" data-name="wedding cake" class="cls-1" d="M783,1212v-18.67h5.231v-10.67h10.478l-4.223-4.34a3.784,3.784,0,0,1-.427-4.61h0a3.613,3.613,0,0,1,3.056-1.71,3.7,3.7,0,0,0,5.768,0,3.614,3.614,0,0,1,3.056,1.71h0a3.781,3.781,0,0,1-.523,4.71l-4.126,4.24h10.478v10.67H817V1212H783Zm14.544-37.32a2.714,2.714,0,0,0-.292.02H797.7A0.89,0.89,0,0,0,797.544,1174.68Zm4.831,0h0a1.116,1.116,0,0,0-.177.02h0.491A3.027,3.027,0,0,0,802.375,1174.68Zm1.541,1.7a1.471,1.471,0,0,0-1.215-1.68h-0.515a4.537,4.537,0,0,0-2.186,1.34,5.766,5.766,0,0,0-2.293-1.34h-0.47a1.516,1.516,0,0,0-1.153,1.71,1.919,1.919,0,0,0,.843,1.26l3.073,3.08,2.94-2.91A2.3,2.3,0,0,0,803.916,1176.38Zm5.238,8.95H790.846v8h18.308v-8Zm5.231,10.67h-28.77v6.6a3.385,3.385,0,0,0,.677.06,3.294,3.294,0,0,0,3.258-3.33,3.328,3.328,0,0,1,0-.67h2.608a3.144,3.144,0,0,0,0,.67,3.26,3.26,0,1,0,6.518,0,3.248,3.248,0,0,1,0-.67h2.607a3.217,3.217,0,0,0,0,.67,3.26,3.26,0,1,0,6.518,0,3.328,3.328,0,0,1,0-.67h2.607a3.217,3.217,0,0,0,0,.67,3.294,3.294,0,0,0,3.259,3.33,1.616,1.616,0,0,0,.718-0.16V1196Zm0,9.24a3.046,3.046,0,0,1-.718.09,5.8,5.8,0,0,1-4.562-2.23,5.783,5.783,0,0,1-9.126,0,5.782,5.782,0,0,1-9.125,0,5.8,5.8,0,0,1-4.562,2.23,6.108,6.108,0,0,1-.677-0.06v4.06h28.77v-4.09Zm-3.976-6.58h0Z" transform="translate(-783 -1172)"/>
</svg>
