<svg xmlns="http://www.w3.org/2000/svg" width="40.06" height="40" viewBox="0 0 40.06 40">
  <defs>
    <style>
      .cls-1 {
        fill: #6f6f6f;
        fill-rule: evenodd;
      }
    </style>
  </defs>
  <path id="notebook" class="cls-1" d="M1250.21,1212v-6.67h-2.67v-2.67h2.67v-5.33h-2.67v-2.67h2.67v-5.33h-2.67v-2.67h2.67v-5.33h-2.67v-2.67h2.67V1172h37.39v40h-37.39Zm34.72-37.34h-32.05v4h2.67v2.67h-2.67v5.33h2.67v2.67h-2.67v5.33h2.67v2.67h-2.67v5.33h2.67v2.67h-2.67v4h32.05v-34.67Zm-8.02,4v10.67h-16.02v-10.67h16.02Zm-13.35,8h10.68v-5.33h-10.68v5.33Z" transform="translate(-1247.53 -1172)"/>
</svg>
